<svg width="129" height="29" viewBox="0 0 129 29" fill="none" xmlns="http://www.w3.org/2000/svg">
<path d="M2.94737 29C2.13684 29 1.44298 28.7104 0.865789 28.1312C0.288597 27.552 0 26.8557 0 26.0423V7.74171C0 7.12553 0.165789 6.56481 0.497368 6.05954C0.828947 5.55427 1.27719 5.19072 1.84211 4.96889L13.6316 0.236614C14.614 -0.157743 15.5351 -0.0591535 16.3947 0.532381C17.2544 1.12392 17.6842 1.9496 17.6842 3.00943V5.3386C18.4947 5.3386 19.1886 5.62821 19.7658 6.20742C20.343 6.78663 20.6316 7.48292 20.6316 8.29628V9.77511C20.6316 10.1941 20.4903 10.5453 20.2079 10.8288C19.9254 11.1122 19.5754 11.254 19.1579 11.254C18.7404 11.254 18.3904 11.1122 18.1079 10.8288C17.8254 10.5453 17.6842 10.1941 17.6842 9.77511V8.29628H2.94737V26.0423H9.1C9.51754 26.0423 9.86754 26.184 10.15 26.4675C10.4325 26.7509 10.5737 27.1022 10.5737 27.5212C10.5737 27.9402 10.4325 28.2914 10.15 28.5748C9.86754 28.8583 9.51754 29 9.1 29H2.94737ZM8.8421 5.3386H14.7368V3.0464L8.8421 5.3386Z" fill="#1F1F1F"/>
<path d="M39.1378 22V8.90909H44.3026C45.2955 8.90909 46.1413 9.09872 46.8402 9.47798C47.5391 9.85298 48.0717 10.375 48.4382 11.044C48.8089 11.7088 48.9943 12.4759 48.9943 13.3452C48.9943 14.2145 48.8068 14.9815 48.4318 15.6463C48.0568 16.3111 47.5135 16.8288 46.8018 17.1996C46.0945 17.5703 45.2379 17.7557 44.2322 17.7557H40.9403V15.5376H43.7848C44.3175 15.5376 44.7564 15.446 45.1016 15.2628C45.451 15.0753 45.7109 14.8175 45.8814 14.4893C46.0561 14.157 46.1435 13.7756 46.1435 13.3452C46.1435 12.9105 46.0561 12.5312 45.8814 12.2074C45.7109 11.8793 45.451 11.6257 45.1016 11.4467C44.7521 11.2635 44.3089 11.1719 43.772 11.1719H41.9055V22H39.1378ZM53.464 8.90909V22H50.7409V8.90909H53.464ZM58.445 22.1854C57.8185 22.1854 57.2603 22.0767 56.7702 21.8594C56.2802 21.6378 55.8924 21.3118 55.6069 20.8814C55.3256 20.4467 55.185 19.9055 55.185 19.2578C55.185 18.7124 55.2852 18.2543 55.4854 17.8835C55.6857 17.5128 55.9585 17.2145 56.3036 16.9886C56.6488 16.7628 57.0408 16.5923 57.4798 16.4773C57.9229 16.3622 58.3874 16.2812 58.8732 16.2344C59.4442 16.1747 59.9045 16.1193 60.2539 16.0682C60.6033 16.0128 60.8569 15.9318 61.0146 15.8253C61.1722 15.7187 61.2511 15.5611 61.2511 15.3523V15.3139C61.2511 14.9091 61.1232 14.5959 60.8675 14.3743C60.6161 14.1527 60.2582 14.0419 59.7937 14.0419C59.3036 14.0419 58.9137 14.1506 58.6239 14.3679C58.3342 14.581 58.1424 14.8494 58.0487 15.1733L55.5302 14.9688C55.658 14.3722 55.9094 13.8565 56.2844 13.4219C56.6594 12.983 57.1431 12.6463 57.7354 12.4119C58.332 12.1733 59.0224 12.054 59.8065 12.054C60.3519 12.054 60.8739 12.1179 61.3725 12.2457C61.8754 12.3736 62.3207 12.5717 62.7085 12.8402C63.1005 13.1087 63.4094 13.4538 63.6353 13.8757C63.8612 14.2933 63.9741 14.794 63.9741 15.3778V22H61.3917V20.6385H61.315C61.1573 20.9453 60.9464 21.2159 60.6822 21.4503C60.418 21.6804 60.1005 21.8615 59.7298 21.9936C59.359 22.1214 58.9308 22.1854 58.445 22.1854ZM59.2248 20.3061C59.6254 20.3061 59.979 20.2273 60.2859 20.0696C60.5927 19.9077 60.8335 19.6903 61.0082 19.4176C61.1829 19.1449 61.2702 18.8359 61.2702 18.4908V17.4489C61.185 17.5043 61.0678 17.5554 60.9187 17.6023C60.7738 17.6449 60.6097 17.6854 60.4265 17.7237C60.2433 17.7578 60.06 17.7898 59.8768 17.8196C59.6935 17.8452 59.5273 17.8686 59.3782 17.8899C59.0586 17.9368 58.7795 18.0114 58.5408 18.1136C58.3022 18.2159 58.1168 18.3544 57.9847 18.5291C57.8526 18.6996 57.7866 18.9126 57.7866 19.1683C57.7866 19.5391 57.9208 19.8224 58.1893 20.0185C58.462 20.2102 58.8072 20.3061 59.2248 20.3061ZM67.4162 25.6818C67.071 25.6818 66.7472 25.6541 66.4446 25.5987C66.1463 25.5476 65.8991 25.4815 65.7031 25.4006L66.3168 23.3679C66.6364 23.4659 66.924 23.5192 67.1797 23.5277C67.4396 23.5362 67.6634 23.4766 67.8509 23.3487C68.0426 23.2209 68.1982 23.0036 68.3175 22.6967L68.4773 22.2812L64.9553 12.1818H67.8189L69.8516 19.392H69.9538L72.0057 12.1818H74.8885L71.0724 23.0611C70.8892 23.5895 70.6399 24.0497 70.3246 24.4418C70.0135 24.8381 69.6193 25.1428 69.142 25.3558C68.6648 25.5732 68.0895 25.6818 67.4162 25.6818ZM83.4347 12.674C83.3835 12.1584 83.1641 11.7578 82.7763 11.4723C82.3885 11.1868 81.8622 11.044 81.1974 11.044C80.7457 11.044 80.3643 11.108 80.0533 11.2358C79.7422 11.3594 79.5036 11.532 79.3374 11.7536C79.1754 11.9751 79.0945 12.2266 79.0945 12.5078C79.0859 12.7422 79.1349 12.9467 79.2415 13.1214C79.3523 13.2962 79.5036 13.4474 79.6953 13.5753C79.8871 13.6989 80.1087 13.8075 80.3601 13.9013C80.6115 13.9908 80.88 14.0675 81.1655 14.1314L82.3416 14.4126C82.9126 14.5405 83.4368 14.7109 83.9141 14.924C84.3913 15.1371 84.8047 15.3991 85.1541 15.7102C85.5036 16.0213 85.7741 16.3878 85.9659 16.8097C86.1619 17.2315 86.2621 17.7152 86.2663 18.2607C86.2621 19.0618 86.0575 19.7564 85.6527 20.3445C85.2521 20.9283 84.6726 21.3821 83.9141 21.706C83.1598 22.0256 82.25 22.1854 81.1847 22.1854C80.1278 22.1854 79.2074 22.0234 78.4233 21.6996C77.6435 21.3757 77.0341 20.8963 76.5952 20.2614C76.1605 19.6222 75.9325 18.8317 75.9112 17.8899H78.5895C78.6193 18.3288 78.745 18.6953 78.9666 18.9893C79.1925 19.2791 79.4929 19.4986 79.8679 19.6477C80.2472 19.7926 80.6754 19.8651 81.1527 19.8651C81.6214 19.8651 82.0284 19.7969 82.3736 19.6605C82.723 19.5241 82.9936 19.3345 83.1854 19.0916C83.3771 18.8487 83.473 18.5696 83.473 18.2543C83.473 17.9602 83.3857 17.7131 83.2109 17.5128C83.0405 17.3125 82.7891 17.142 82.4567 17.0014C82.1286 16.8608 81.7259 16.733 81.2486 16.6179L79.8232 16.2599C78.7195 15.9915 77.848 15.5717 77.2088 15.0007C76.5696 14.4297 76.2521 13.6605 76.2564 12.6932C76.2521 11.9006 76.4631 11.2081 76.8892 10.6158C77.3196 10.0234 77.9098 9.56108 78.6598 9.22869C79.4098 8.89631 80.2621 8.73011 81.2166 8.73011C82.1882 8.73011 83.0362 8.89631 83.7607 9.22869C84.4893 9.56108 85.0561 10.0234 85.4609 10.6158C85.8658 11.2081 86.0746 11.8942 86.0874 12.674H83.4347ZM88.0769 22V12.1818H90.6721V13.9141H90.7871C90.9917 13.3388 91.3326 12.8849 91.8098 12.5526C92.2871 12.2202 92.8581 12.054 93.5229 12.054C94.1962 12.054 94.7694 12.2223 95.2424 12.5589C95.7154 12.8913 96.0307 13.343 96.1884 13.9141H96.2907C96.4909 13.3516 96.8532 12.902 97.3773 12.5653C97.9057 12.2244 98.53 12.054 99.2502 12.054C100.166 12.054 100.91 12.3459 101.481 12.9297C102.056 13.5092 102.344 14.3317 102.344 15.397V22H99.6273V15.9339C99.6273 15.3885 99.4824 14.9794 99.1926 14.7067C98.9029 14.4339 98.5407 14.2976 98.106 14.2976C97.6117 14.2976 97.226 14.4553 96.949 14.7706C96.6721 15.0817 96.5336 15.4929 96.5336 16.0043V22H93.8936V15.8764C93.8936 15.3949 93.7551 15.0114 93.4782 14.7259C93.2054 14.4403 92.8453 14.2976 92.3979 14.2976C92.0953 14.2976 91.8226 14.3743 91.5797 14.5277C91.3411 14.6768 91.1515 14.8878 91.0108 15.1605C90.8702 15.429 90.7999 15.7443 90.7999 16.1065V22H88.0769ZM107.295 22.1854C106.668 22.1854 106.11 22.0767 105.62 21.8594C105.13 21.6378 104.742 21.3118 104.456 20.8814C104.175 20.4467 104.035 19.9055 104.035 19.2578C104.035 18.7124 104.135 18.2543 104.335 17.8835C104.535 17.5128 104.808 17.2145 105.153 16.9886C105.498 16.7628 105.89 16.5923 106.329 16.4773C106.773 16.3622 107.237 16.2812 107.723 16.2344C108.294 16.1747 108.754 16.1193 109.104 16.0682C109.453 16.0128 109.706 15.9318 109.864 15.8253C110.022 15.7187 110.101 15.5611 110.101 15.3523V15.3139C110.101 14.9091 109.973 14.5959 109.717 14.3743C109.466 14.1527 109.108 14.0419 108.643 14.0419C108.153 14.0419 107.763 14.1506 107.474 14.3679C107.184 14.581 106.992 14.8494 106.898 15.1733L104.38 14.9688C104.508 14.3722 104.759 13.8565 105.134 13.4219C105.509 12.983 105.993 12.6463 106.585 12.4119C107.182 12.1733 107.872 12.054 108.656 12.054C109.202 12.054 109.724 12.1179 110.222 12.2457C110.725 12.3736 111.17 12.5717 111.558 12.8402C111.95 13.1087 112.259 13.4538 112.485 13.8757C112.711 14.2933 112.824 14.794 112.824 15.3778V22H110.241V20.6385H110.165C110.007 20.9453 109.796 21.2159 109.532 21.4503C109.268 21.6804 108.95 21.8615 108.579 21.9936C108.209 22.1214 107.78 22.1854 107.295 22.1854ZM108.074 20.3061C108.475 20.3061 108.829 20.2273 109.135 20.0696C109.442 19.9077 109.683 19.6903 109.858 19.4176C110.032 19.1449 110.12 18.8359 110.12 18.4908V17.4489C110.035 17.5043 109.917 17.5554 109.768 17.6023C109.623 17.6449 109.459 17.6854 109.276 17.7237C109.093 17.7578 108.91 17.7898 108.726 17.8196C108.543 17.8452 108.377 17.8686 108.228 17.8899C107.908 17.9368 107.629 18.0114 107.39 18.1136C107.152 18.2159 106.966 18.3544 106.834 18.5291C106.702 18.6996 106.636 18.9126 106.636 19.1683C106.636 19.5391 106.77 19.8224 107.039 20.0185C107.312 20.2102 107.657 20.3061 108.074 20.3061ZM114.936 22V12.1818H117.576V13.8949H117.678C117.857 13.2855 118.158 12.8253 118.58 12.5142C119.002 12.1989 119.487 12.0412 120.037 12.0412C120.173 12.0412 120.32 12.0497 120.478 12.0668C120.636 12.0838 120.774 12.1072 120.894 12.1371V14.5533C120.766 14.5149 120.589 14.4808 120.363 14.451C120.137 14.4212 119.931 14.4062 119.743 14.4062C119.343 14.4062 118.985 14.4936 118.669 14.6683C118.358 14.8388 118.111 15.0774 117.928 15.3842C117.749 15.6911 117.659 16.0447 117.659 16.4453V22H114.936ZM128.016 12.1818V14.2273H122.103V12.1818H128.016ZM123.446 9.82955H126.169V18.983C126.169 19.2344 126.207 19.4304 126.284 19.571C126.36 19.7074 126.467 19.8033 126.603 19.8587C126.744 19.9141 126.906 19.9418 127.089 19.9418C127.217 19.9418 127.345 19.9311 127.473 19.9098C127.6 19.8842 127.699 19.8651 127.767 19.8523L128.195 21.8786C128.059 21.9212 127.867 21.9702 127.62 22.0256C127.373 22.0852 127.072 22.1214 126.718 22.1342C126.062 22.1598 125.487 22.0724 124.993 21.8722C124.502 21.6719 124.121 21.3608 123.848 20.9389C123.576 20.517 123.441 19.9844 123.446 19.3409V9.82955Z" fill="black"/>
<path d="M15.1553 26.6256C16.5921 28.0674 18.3298 28.7884 20.3684 28.7884C22.407 28.7884 24.1447 28.0674 25.5816 26.6256C27.0184 25.1837 27.7368 23.4399 27.7368 21.3942C27.7368 19.3485 27.0184 17.6047 25.5816 16.1628C24.1447 14.7209 22.407 14 20.3684 14C18.3298 14 16.5921 14.7209 15.1553 16.1628C13.7184 17.6047 13 19.3485 13 21.3942C13 23.4399 13.7184 25.1837 15.1553 26.6256Z" fill="#F5C545"/>
<path d="M23.4263 22.0226L19.6684 24.3887C19.4228 24.5366 19.171 24.5428 18.9131 24.4072C18.6553 24.2716 18.5263 24.056 18.5263 23.7602V19.0279C18.5263 18.7322 18.6553 18.5165 18.9131 18.3809C19.171 18.2454 19.4228 18.2515 19.6684 18.3994L23.4263 20.7656C23.6719 20.9135 23.7947 21.123 23.7947 21.3941C23.7947 21.6652 23.6719 21.8747 23.4263 22.0226Z" fill="#1F1F1F"/>
</svg>
